<mxfile host="Electron" agent="Mozilla/5.0 (X11; Linux x86_64) AppleWebKit/537.36 (KHTML, like Gecko) draw.io/24.7.17 Chrome/128.0.6613.36 Electron/32.0.1 Safari/537.36" version="24.7.17">
  <diagram name="Page-1" id="fS2TBBuwBfw6XBj3Vpff">
    <mxGraphModel dx="2074" dy="1230" grid="1" gridSize="10" guides="1" tooltips="1" connect="1" arrows="1" fold="1" page="1" pageScale="1" pageWidth="1169" pageHeight="827" math="0" shadow="0">
      <root>
        <mxCell id="0" />
        <mxCell id="1" parent="0" />
        <mxCell id="SbbcOOe-M4RnM6OQ8KH8-1" value="" style="ellipse;html=1;shape=startState;fillColor=#000000;strokeColor=#ff0000;" vertex="1" parent="1">
          <mxGeometry x="505" y="150" width="30" height="30" as="geometry" />
        </mxCell>
        <mxCell id="SbbcOOe-M4RnM6OQ8KH8-2" value="" style="edgeStyle=orthogonalEdgeStyle;html=1;verticalAlign=bottom;endArrow=open;endSize=8;strokeColor=#ff0000;rounded=0;" edge="1" parent="1" source="SbbcOOe-M4RnM6OQ8KH8-1">
          <mxGeometry relative="1" as="geometry">
            <mxPoint x="520" y="260" as="targetPoint" />
          </mxGeometry>
        </mxCell>
        <mxCell id="SbbcOOe-M4RnM6OQ8KH8-3" value="Trigger" style="ellipse;whiteSpace=wrap;html=1;fillColor=#ffff88;strokeColor=#36393d;" vertex="1" parent="1">
          <mxGeometry x="470" y="380" width="100" height="60" as="geometry" />
        </mxCell>
        <mxCell id="SbbcOOe-M4RnM6OQ8KH8-4" value="IDLE" style="ellipse;whiteSpace=wrap;html=1;fillColor=#ffff88;strokeColor=#36393d;" vertex="1" parent="1">
          <mxGeometry x="470" y="260" width="100" height="60" as="geometry" />
        </mxCell>
        <mxCell id="SbbcOOe-M4RnM6OQ8KH8-5" value="Transmission" style="ellipse;whiteSpace=wrap;html=1;fillColor=#ffff88;strokeColor=#36393d;" vertex="1" parent="1">
          <mxGeometry x="470" y="500" width="100" height="60" as="geometry" />
        </mxCell>
        <mxCell id="SbbcOOe-M4RnM6OQ8KH8-6" value="" style="endArrow=classic;html=1;rounded=0;exitX=0.5;exitY=1;exitDx=0;exitDy=0;entryX=0.5;entryY=0;entryDx=0;entryDy=0;" edge="1" parent="1" source="SbbcOOe-M4RnM6OQ8KH8-4" target="SbbcOOe-M4RnM6OQ8KH8-3">
          <mxGeometry width="50" height="50" relative="1" as="geometry">
            <mxPoint x="620" y="430" as="sourcePoint" />
            <mxPoint x="670" y="380" as="targetPoint" />
          </mxGeometry>
        </mxCell>
        <mxCell id="SbbcOOe-M4RnM6OQ8KH8-7" value="" style="endArrow=classic;html=1;rounded=0;exitX=0.5;exitY=1;exitDx=0;exitDy=0;entryX=0.5;entryY=0;entryDx=0;entryDy=0;" edge="1" parent="1">
          <mxGeometry width="50" height="50" relative="1" as="geometry">
            <mxPoint x="519.6600000000001" y="440" as="sourcePoint" />
            <mxPoint x="519.6600000000001" y="500" as="targetPoint" />
          </mxGeometry>
        </mxCell>
        <mxCell id="SbbcOOe-M4RnM6OQ8KH8-8" value="" style="endArrow=classic;html=1;rounded=0;exitX=0.5;exitY=1;exitDx=0;exitDy=0;entryX=0;entryY=0.5;entryDx=0;entryDy=0;" edge="1" parent="1" target="SbbcOOe-M4RnM6OQ8KH8-4">
          <mxGeometry width="50" height="50" relative="1" as="geometry">
            <mxPoint x="519.6600000000001" y="560" as="sourcePoint" />
            <mxPoint x="380" y="290" as="targetPoint" />
            <Array as="points">
              <mxPoint x="520" y="590" />
              <mxPoint x="380" y="590" />
              <mxPoint x="380" y="290" />
            </Array>
          </mxGeometry>
        </mxCell>
        <mxCell id="SbbcOOe-M4RnM6OQ8KH8-9" value="tx_start_in &amp;amp;&amp;amp; shift_reg_ready / chip_select_r &amp;lt;= 0&lt;div&gt;deactivate_cs_r &amp;lt;= deactivate_cs_in&lt;/div&gt;" style="text;html=1;align=center;verticalAlign=middle;whiteSpace=wrap;rounded=0;" vertex="1" parent="1">
          <mxGeometry x="520" y="330" width="210" height="40" as="geometry" />
        </mxCell>
        <mxCell id="SbbcOOe-M4RnM6OQ8KH8-10" value="!shift_reg_ready" style="text;html=1;align=center;verticalAlign=middle;whiteSpace=wrap;rounded=0;" vertex="1" parent="1">
          <mxGeometry x="520" y="450" width="130" height="30" as="geometry" />
        </mxCell>
        <mxCell id="SbbcOOe-M4RnM6OQ8KH8-11" value="shift_reg_ready /&lt;br&gt;chip_select_r &amp;lt;= deactivate_cs_r" style="text;html=1;align=center;verticalAlign=middle;whiteSpace=wrap;rounded=0;" vertex="1" parent="1">
          <mxGeometry x="170" y="385" width="220" height="50" as="geometry" />
        </mxCell>
        <mxCell id="SbbcOOe-M4RnM6OQ8KH8-12" value="State Machine: SPI" style="shape=umlFrame;whiteSpace=wrap;html=1;pointerEvents=0;width=110;height=30;fillColor=none;dashed=1;dashPattern=8 8;" vertex="1" parent="1">
          <mxGeometry x="170" y="220" width="570" height="400" as="geometry" />
        </mxCell>
        <mxCell id="SbbcOOe-M4RnM6OQ8KH8-13" value="External reset" style="text;html=1;align=center;verticalAlign=middle;whiteSpace=wrap;rounded=0;" vertex="1" parent="1">
          <mxGeometry x="450" y="150" width="60" height="30" as="geometry" />
        </mxCell>
      </root>
    </mxGraphModel>
  </diagram>
</mxfile>
